<svg xmlns="http://www.w3.org/2000/svg" width="108" height="36" viewBox="0 0 108 36"><path fill="#000" d="M32.382 18.02c0 2.191-.01 4.382.003 6.572.01 1.718-.733 2.984-2.26 3.841A2083.468 2083.468 0 0 0 18.47 35.02c-1.53.872-3.02.874-4.551.003-3.914-2.228-7.84-4.435-11.76-6.651C.725 27.56.006 26.337.004 24.72 0 20.248 0 15.774.004 11.301c.002-1.615.715-2.839 2.15-3.65L14.025.938c1.443-.815 2.888-.818 4.33-.003 3.957 2.236 7.913 4.475 11.87 6.711 1.436.812 2.15 2.033 2.155 3.649.008 2.242.002 4.483.002 6.725h.001Z"/><path fill="#FDFDFD" d="M1.629 9.875c.31-.62.797-1.08 1.398-1.42 3.763-2.132 7.525-4.269 11.298-6.382 1.222-.684 2.502-.688 3.723-.005 3.785 2.116 7.56 4.248 11.324 6.4 1.245.712 1.87 1.832 1.874 3.243.012 4.195.013 8.391 0 12.586-.005 1.444-.646 2.57-1.933 3.301-3.742 2.124-7.491 4.237-11.238 6.353-.42.237-.867.403-1.358.43-.404.043-.412.036-.284-.338.165-.482.24-.974.24-1.483-.005-4.141.001-8.283-.005-12.424-.003-1.446-.654-2.553-1.932-3.277a9035.302 9035.302 0 0 0-10.99-6.212c-.578-.325-1.185-.57-1.872-.57-.11 0-.311.036-.246-.201v-.001Z"/><path fill="#E5E6E7" d="M1.629 9.875c.024.15.145.126.245.122.723-.027 1.35.257 1.954.593 1.455.813 2.902 1.638 4.35 2.46 1.414.802 2.823 1.61 4.238 2.406.907.51 1.843.979 2.71 1.553 1.07.709 1.619 1.736 1.626 2.99.02 4.113.003 8.227.012 12.34.002.684-.067 1.347-.346 1.98.092.095.208.019.299.062-.885.173-1.702-.03-2.465-.459-2.23-1.252-4.453-2.514-6.679-3.771-1.475-.834-2.948-1.67-4.424-2.502-1.345-.758-2.012-1.905-2.014-3.412-.008-4.164-.006-8.328 0-12.493.002-.658.11-1.301.495-1.868l-.001-.001Z"/><path fill="#000" d="M36.599 9.265h5.555c2.376 0 4.175.327 5.395.98 1.22.653 1.831 1.8 1.831 3.441 0 .661-.107 1.258-.323 1.792a3.306 3.306 0 0 1-.934 1.315c-.407.342-.903.566-1.489.669v.119c.594.119 1.131.325 1.612.616.48.29.865.712 1.153 1.266.289.554.434 1.289.434 2.205 0 1.06-.265 1.967-.793 2.724-.529.757-1.283 1.337-2.264 1.738-.981.402-2.147.604-3.498.604H36.6V9.265h-.001Zm3.784 6.918h2.198c1.098 0 1.86-.169 2.283-.507.424-.34.635-.839.635-1.5 0-.66-.25-1.149-.751-1.44-.5-.29-1.292-.435-2.375-.435h-1.99v3.883Zm0 2.94v4.551h2.466c1.14 0 1.933-.215 2.38-.645.448-.43.672-1.007.672-1.732 0-.43-.098-.81-.293-1.136-.195-.327-.523-.582-.983-.764-.46-.183-1.093-.275-1.898-.275h-2.344ZM55.214 26.734H51.43V8.094h3.785v18.64ZM70.202 20.007c0 1.118-.153 2.108-.46 2.97-.306.863-.751 1.592-1.336 2.187a5.677 5.677 0 0 1-2.108 1.347c-.821.304-1.747.456-2.776.456-.963 0-1.848-.152-2.653-.456a5.812 5.812 0 0 1-2.096-1.347c-.592-.595-1.05-1.324-1.372-2.186-.323-.863-.484-1.853-.484-2.971 0-1.485.27-2.743.81-3.773a5.484 5.484 0 0 1 2.303-2.347c.997-.535 2.185-.803 3.567-.803 1.283 0 2.421.268 3.413.803.993.535 1.773 1.317 2.34 2.347.569 1.03.853 2.288.853 3.773h-.001Zm-9.474 0c0 .879.098 1.617.294 2.215.197.599.503 1.05.92 1.354.417.304.96.455 1.63.455.67 0 1.198-.151 1.611-.455.412-.304.715-.754.908-1.354.191-.599.287-1.337.287-2.215 0-.878-.096-1.623-.287-2.21-.193-.587-.496-1.028-.913-1.324-.417-.295-.96-.443-1.63-.443-.988 0-1.706.332-2.151.994-.445.663-.668 1.657-.668 2.983ZM77.825 26.997c-1.35 0-2.5-.243-3.451-.729-.951-.485-1.675-1.236-2.17-2.256-.496-1.018-.744-2.321-.744-3.91s.282-2.985.846-4.025c.565-1.038 1.35-1.803 2.353-2.292 1.004-.49 2.169-.734 3.494-.734.943 0 1.758.09 2.444.27.687.18 1.287.396 1.799.644l-1.098 2.84a19.088 19.088 0 0 0-1.633-.572 5.326 5.326 0 0 0-1.512-.222c-.651 0-1.192.15-1.622.451-.43.301-.751.753-.962 1.353-.212.602-.317 1.356-.317 2.262 0 .907.114 1.628.341 2.214.227.585.556 1.02.987 1.305.431.285.956.427 1.574.427.772 0 1.459-.102 2.06-.306a7.91 7.91 0 0 0 1.756-.86v3.14a6.307 6.307 0 0 1-1.786.765c-.621.155-1.408.234-2.36.234ZM87.593 8.096v8.455c0 .51-.021 1.02-.062 1.53-.04.511-.086 1.02-.134 1.531h.05c.252-.356.51-.709.775-1.057.266-.348.548-.684.85-1.008l3.823-4.13h4.202l-5.424 5.891 5.754 7.69h-4.3l-3.933-5.503-1.6 1.276v4.227h-3.727V8.096h3.726ZM108 22.763c0 .914-.219 1.686-.656 2.316-.438.63-1.091 1.107-1.956 1.431-.867.325-1.947.488-3.239.488-.957 0-1.777-.06-2.46-.181-.682-.12-1.372-.32-2.067-.602v-3.032c.744.33 1.544.6 2.398.813.855.212 1.606.318 2.252.318.728 0 1.248-.106 1.563-.318.315-.212.473-.491.473-.836 0-.225-.063-.428-.191-.608-.126-.18-.399-.385-.815-.614-.417-.229-1.072-.527-1.963-.896-.858-.353-1.564-.71-2.116-1.071-.552-.36-.961-.788-1.227-1.281-.266-.493-.4-1.12-.4-1.884 0-1.243.493-2.179 1.478-2.809.986-.63 2.305-.944 3.957-.944.851 0 1.662.084 2.435.253.772.168 1.568.438 2.386.806l-1.129 2.647a19.702 19.702 0 0 0-1.919-.71 6.213 6.213 0 0 0-1.834-.277c-.547 0-.961.072-1.239.217-.278.144-.417.364-.417.662 0 .216.072.409.215.577.144.168.421.355.834.56.413.205 1.021.467 1.821.788.777.313 1.452.64 2.024.98.573.341 1.014.763 1.325 1.263.311.502.466 1.15.466 1.944H108Z"/></svg>
