<svg xmlns="http://www.w3.org/2000/svg" width="24" height="24" viewBox="0 0 24 24"><path fill="#000" d="M22.992 12.014c0 1.487-.006 2.975.002 4.462.006 1.166-.497 2.026-1.535 2.608-2.642 1.482-5.28 2.972-7.912 4.471-1.04.592-2.05.594-3.09.002-2.657-1.512-5.323-3.01-7.984-4.516-.975-.55-1.463-1.38-1.464-2.477-.004-3.038-.004-6.075 0-9.112.001-1.097.485-1.928 1.46-2.48L10.528.417c.98-.553 1.96-.555 2.94-.002 2.687 1.518 5.372 3.039 8.058 4.557.976.55 1.46 1.38 1.464 2.477.005 1.522.001 3.044.001 4.566z"/><path fill="#fdfdfd" d="M2.112 6.483c.21-.421.54-.733.949-.964 2.555-1.448 5.11-2.898 7.671-4.333.83-.464 1.699-.467 2.528-.003a921.043 921.043 0 0 1 7.689 4.345c.845.483 1.27 1.244 1.272 2.202.008 2.849.009 5.697 0 8.545-.003.98-.439 1.745-1.313 2.242-2.54 1.442-5.086 2.877-7.63 4.313a2.095 2.095 0 0 1-.922.292c-.274.029-.28.025-.193-.23.112-.326.163-.66.163-1.006-.003-2.812.001-5.624-.003-8.436-.002-.982-.444-1.733-1.312-2.225A6134.954 6134.954 0 0 0 3.55 7.008c-.392-.221-.805-.388-1.27-.388-.076 0-.212.025-.168-.136z"/><path fill="#e5e6e7" d="M2.112 6.483c.017.103.098.086.166.083.49-.018.917.174 1.327.403.988.552 1.97 1.112 2.954 1.67.96.544 1.916 1.093 2.877 1.634.616.346 1.251.664 1.84 1.054.726.481 1.1 1.179 1.104 2.03.013 2.793.002 5.586.008 8.378.001.465-.045.915-.235 1.345.063.064.142.013.203.042-.6.118-1.155-.02-1.674-.311-1.513-.85-3.023-1.708-4.534-2.561-1.002-.566-2.002-1.134-3.004-1.699-.913-.514-1.366-1.293-1.368-2.316-.005-2.828-.004-5.655.001-8.482 0-.447.074-.884.336-1.269Z"/></svg>
